<?xml version="1.0" encoding="utf-8"?>
<!DOCTYPE svg PUBLIC "-//W3C//DTD SVG 1.0//EN" "http://www.w3.org/TR/2001/REC-SVG-20010904/DTD/svg10.dtd">
<svg version="1.0" xmlns="http://www.w3.org/2000/svg" width="499px" height="194px" viewBox="0 0 499 194" preserveAspectRatio="xMidYMid meet">
 <g fill="#ffffff">
  <path d="M0 97 l0 -97 249.50 0 249.50 0 0 97 0 97 -249.50 0 -249.50 0 0 -97z m158.25 75 c-0.80 -0.20 -2.50 -0.35 -3.75 -0.35 l-2.25 0 2.25 0.35 c1.25 0.20 2.95 0.35 3.75 0.35 l1.50 0.05 -1.50 -0.40z m-50.20 -35.70 c-5.70 -5.70 -6.20 -6.35 -6.40 -8.40 -0.30 -2.60 0.10 -3 3.45 -3.85 5.25 -1.25 9.05 -0.50 14.05 2.80 3.95 2.65 6.80 3.25 9.25 1.95 0.85 -0.45 1.70 -1.05 1.90 -1.35 0.20 -0.35 -0.05 -0.35 -0.80 0.05 -0.75 0.40 -2.40 0.55 -4.50 0.40 -2.90 -0.25 -4 -0.60 -7.85 -2.85 -3.10 -1.80 -5.25 -2.65 -7 -2.90 -3.45 -0.40 -7.15 0.90 -9.15 3.15 -1.45 1.65 -1.50 1.80 -0.75 3.20 0.70 1.30 13.15 14 13.75 14 0.15 0 -2.55 -2.80 -5.95 -6.20z m84.85 -4.55 c-0.05 -1.75 -0.10 -1.65 -0.40 0.75 -0.25 1.50 -0.40 3.65 -0.40 4.75 0.05 1.75 0.10 1.65 0.40 -0.75 0.25 -1.50 0.40 -3.65 0.40 -4.75z m-0.55 -5.60 c-0.15 -0.50 -0.25 -0.10 -0.25 0.85 0 0.95 0.10 1.35 0.25 0.90 0.10 -0.50 0.10 -1.30 0 -1.75z m-69.50 -11.50 c-0.10 -6.70 -0.05 -6.95 1.25 -9.15 0.75 -1.25 2 -2.70 2.85 -3.25 1.40 -0.90 3 -3.50 2.45 -4 -0.10 -0.15 -2.20 1.75 -4.55 4.20 l-4.35 4.40 0 5.70 c0 4.80 0.15 5.95 1 7.35 0.55 0.85 1.10 1.60 1.25 1.60 0.10 0 0.20 -3.10 0.10 -6.85z m13.05 -16 c0.30 -17.65 0.15 -22.20 -0.65 -17.50 -0.40 2.55 -0.55 40 -0.10 38.45 0.20 -0.75 0.55 -10.15 0.75 -20.95z m46.45 15.25 l1.40 -0.85 -2.20 -0.05 c-1.75 0 -2.10 0.15 -1.85 0.80 0.15 0.45 0.30 1.50 0.35 2.35 l0.05 1.60 0.45 -1.50 c0.20 -0.80 1.05 -1.90 1.80 -2.35z m-13.55 -4.40 c0.70 -0.30 2.55 -0.50 4.10 -0.55 2.75 -0.05 2.80 -0.05 1.40 -0.70 -1.05 -0.45 -1.95 -0.50 -3.20 -0.15 -0.95 0.25 -2.95 0.40 -4.40 0.30 -2.10 -0.10 -2.65 0 -2.45 0.50 0.15 0.40 0.25 1.85 0.25 3.25 l0 2.55 1.50 -2.35 c0.80 -1.30 2.05 -2.60 2.80 -2.85z m-17.80 -0.35 c0.75 -3.05 2.90 -4.65 6.15 -4.65 1.45 0 3.20 0.35 4 0.70 2.10 1.15 1.60 0.10 -0.60 -1.10 -1.70 -0.95 -2.40 -1.05 -5.65 -0.80 -2.85 0.25 -3.80 0.15 -4.25 -0.40 -0.40 -0.45 -0.65 -4.20 -0.75 -11.50 -0.10 -6.35 -0.35 -11.05 -0.65 -11.35 -0.35 -0.35 -0.40 5.05 -0.25 16.10 0.15 9.15 0.35 16.70 0.45 16.85 0.20 0.40 0.95 -1.50 1.55 -3.85z m-57.50 -9.35 c2.50 -2.25 4.60 -2.80 10.95 -2.80 4.25 0 5.45 -0.15 6.75 -0.95 0.85 -0.55 6.25 -5.85 11.95 -11.75 8.40 -8.65 10.20 -10.80 9.25 -10.80 -0.85 0 -3.75 -2.60 -10.65 -9.55 -5.20 -5.25 -10.15 -9.90 -11 -10.35 -1.20 -0.65 -3.60 -0.90 -11.85 -1.10 l-10.35 -0.25 -1.65 -1.55 c-0.90 -0.90 -2.35 -1.95 -3.20 -2.35 -1.50 -0.75 -1.70 -0.75 -3.75 0.30 -5.35 2.70 -5.60 7.40 -0.60 10.85 2.15 1.50 4.20 1.05 7.30 -1.45 2.95 -2.45 4.80 -2.75 15.45 -2.45 5.95 0.15 8 0.40 9.25 1.05 0.85 0.45 5.05 4.25 9.35 8.45 7.70 7.60 7.80 7.70 7.80 9.85 0 2.10 -0.15 2.35 -5.15 7.25 -2.80 2.75 -6.10 6.10 -7.30 7.40 -3.05 3.35 -5.85 4.55 -11.15 4.80 -6.40 0.30 -8.30 -0.10 -11.10 -2.40 -1.35 -1.10 -3 -2.15 -3.70 -2.35 -1.65 -0.40 -3.95 0.90 -5.75 3.25 -1.55 2.05 -1.50 3.85 0.25 6.10 2.70 3.45 5.65 3.75 8.90 0.80z m104.50 -4.30 l0 -2 -1.30 0.80 c-1.10 0.75 -2.40 0.80 -11.20 0.50 -5.50 -0.15 -10.60 -0.55 -11.35 -0.85 -1.75 -0.65 -4.90 -3.60 -12.25 -11.35 -8.15 -8.55 -8.25 -7.70 2 -17.45 4.35 -4.15 8.70 -8 9.65 -8.60 1.45 -0.90 2.50 -1.05 7.55 -1.05 6.50 0 7.50 0.25 10 2.45 2.55 2.25 3.85 2.60 5.90 1.65 l1.75 -0.85 -3 -0.15 c-3.65 -0.15 -4.25 -0.80 -4.25 -4.40 0 -3.65 0.75 -4.30 4.80 -4.10 3.30 0.15 3.55 -0.15 1.10 -1.40 -1.95 -1 -3.05 -0.70 -6.30 1.70 -2.55 1.95 -2.70 2 -8.25 2.30 -9.35 0.60 -7.90 -0.25 -19.10 10.80 -5.50 5.40 -10.35 9.95 -10.75 10.10 -1.15 0.35 4.10 6.45 12.40 14.30 3.95 3.75 7.80 7.25 8.55 7.70 1.10 0.75 2.65 0.90 10.80 0.95 5.25 0.05 10.20 0.25 11 0.45 0.85 0.20 1.65 0.40 1.90 0.45 0.20 0 0.35 -0.85 0.35 -1.95z m5.75 -4.95 c-0.90 -0.35 -2.75 -0.20 -2.75 0.25 0 0.10 0.85 0.20 1.90 0.15 1.40 0 1.60 -0.10 0.85 -0.40z m24.25 -8.40 c-3.70 -0.15 -4.90 -0.35 -5.35 -1 -0.45 -0.60 -0.65 -3.50 -0.65 -10.25 0 -5.95 -0.20 -9.40 -0.50 -9.40 -0.30 0 -0.50 3.85 -0.50 10.50 l0 10.50 5.90 -0.10 5.85 -0.10 -4.75 -0.15z m41.50 -2.60 c0 -2.45 0.20 -3.25 1.30 -4.50 l1.30 -1.55 -1.30 0 -1.30 0 0 -6 c0 -3.65 -0.20 -6 -0.50 -6 -0.30 0 -0.50 3.85 -0.50 10.50 0 6.65 0.20 10.50 0.50 10.50 0.30 0 0.50 -1.30 0.50 -2.95z m26.50 -2.05 l0 -5.05 7.90 0.15 7.85 0.15 -0.20 4.90 c-0.15 4.20 -0.05 4.85 0.65 4.85 0.70 0 0.80 -1.20 0.80 -10.50 0 -9 -0.10 -10.50 -0.75 -10.50 -0.60 0 -0.75 0.90 -0.75 5.25 l0 5.25 -7.75 0 -7.75 0 0 -5.25 c0 -3.15 -0.20 -5.25 -0.50 -5.25 -0.30 0 -0.50 3.85 -0.50 10.50 0 6.65 0.20 10.50 0.50 10.50 0.30 0 0.50 -2 0.50 -5z m33.25 4.55 l-4.50 -0.30 0 -9.75 0 -9.75 4.25 -0.30 4.25 -0.25 -4.85 -0.10 -4.90 -0.10 0 10.50 0 10.50 5.15 -0.10 5.10 -0.10 -4.50 -0.25z m55.80 -1.65 c0.05 -1.20 0.05 -5.50 0 -9.65 -0.05 -4.10 0.10 -7.75 0.30 -8.10 0.25 -0.35 2 -0.70 4.15 -0.80 2.05 -0.05 -0.05 -0.15 -4.75 -0.15 -4.65 0 -6.75 0.10 -4.60 0.15 l3.85 0.20 0 10.20 c0 6.50 0.20 10.25 0.50 10.25 0.30 0 0.50 -0.95 0.55 -2.10z m43.95 -0.75 c0 -1.60 0.20 -3.15 0.40 -3.45 0.20 -0.30 2.30 -0.75 4.65 -0.90 3.65 -0.30 4.45 -0.25 5.15 0.45 0.75 0.75 0.80 0.75 0.80 -0.20 0 -0.95 -0.35 -1.05 -5.35 -1.15 l-5.40 -0.15 -0.15 -5 c-0.20 -7.50 -0.45 -7.20 5.05 -7.40 l4.60 -0.15 -5.35 -0.10 -5.40 -0.10 0 10.50 c0 6.65 0.20 10.50 0.50 10.50 0.30 0 0.50 -1.30 0.50 -2.85z m-323.95 0.70 c1.90 -1.25 3.95 -4.05 3.95 -5.35 0 -1.30 -2.05 -4.10 -4 -5.40 -2.80 -1.85 -5.85 -0.55 -7.85 3.35 -1.10 2.15 -1.10 2.20 -0.20 4 1.10 2.10 2.30 3.30 4.05 4 1.85 0.70 2.20 0.65 4.05 -0.60z m80.45 -0.80 c1.95 -1.40 3.55 -4.05 3.20 -5.25 -0.60 -1.90 -2.25 -3.80 -4.15 -4.75 -1.55 -0.85 -2.05 -0.85 -3.35 -0.30 -1.65 0.65 -3.95 3.15 -4.45 4.75 -0.45 1.45 1.55 4.70 3.70 5.90 1.90 1.15 3.05 1.05 5.05 -0.35z m71 -2.95 c-0.05 -0.20 -0.35 -0.90 -0.75 -1.60 l-0.70 -1.25 -0.05 1.40 0 1.35 -5.75 0 -5.75 0 0 -1.60 c0 -1.85 -0.20 -1.75 -1.20 0.65 l-0.70 1.70 7.45 -0.15 c4.10 -0.10 7.45 -0.30 7.45 -0.50z m110.60 -1.10 l-0.85 -1.95 -0.15 1.45 -0.15 1.50 -5.75 0 -5.70 0 0 -1.60 -0.05 -1.65 -0.70 1.70 c-0.40 0.90 -0.75 1.75 -0.75 1.85 0 0.10 3.30 0.25 7.40 0.35 4.05 0.05 7.40 0.20 7.45 0.25 0.05 0.05 -0.30 -0.80 -0.75 -1.90z m48.50 -0.35 l-0.85 -1.80 -0.15 1.55 -0.15 1.60 -5.70 0 -5.70 0 -0.15 -1.30 -0.15 -1.35 -0.60 1.60 -0.55 1.55 7.45 0 7.45 0 -0.90 -1.85z m-270.35 0.85 c-0.55 -0.90 -3.60 -1.10 -5.05 -0.30 -1.45 0.75 -1.40 0.75 1.95 0.80 2.05 0 3.30 -0.20 3.10 -0.50z m197.35 -4 c0 -1.30 -0.20 -2.75 -0.40 -3.15 -0.30 -0.50 -0.45 0.70 -0.45 3.15 0 2.50 0.15 3.65 0.45 3.15 0.20 -0.40 0.40 -1.85 0.40 -3.15z m-66.10 -1.10 c0 -0.85 -0.05 -1.45 -0.10 -1.35 -0.10 0.10 -0.70 0.80 -1.35 1.60 l-1.20 1.35 1.30 0 c1.20 0 1.35 -0.20 1.35 -1.60z m-133 -3.60 c0 -3 0.95 -4.20 10.70 -13.80 4.60 -4.55 8.85 -9.10 9.35 -10.10 0.85 -1.65 0.95 -3 0.95 -11.40 0 -9.90 0.35 -11.95 2.25 -12.65 1.05 -0.45 2.75 -3.35 2.75 -4.75 0 -2.80 -3.30 -6.10 -6.15 -6.10 -1.85 0 -4.65 1.80 -5.85 3.75 -1.25 2.05 -0.85 3.30 2.15 6.90 l2.10 2.55 0 10.50 c0 6.75 -0.20 10.90 -0.55 11.50 -0.30 0.50 -4.10 4.50 -8.45 8.85 -7.95 7.95 -7.95 7.95 -10.20 7.95 -2.30 0 -2.35 -0.05 -9.70 -7.25 -9.30 -9.10 -9.60 -9.65 -9.60 -18.05 l0 -6 2.15 -2.45 c1.15 -1.30 2.25 -2.95 2.40 -3.60 0.90 -3.60 -3.55 -8.35 -7.05 -7.45 -1.85 0.45 -4.60 3.10 -5.25 5.05 -0.65 2 -0.40 2.65 2.45 5.95 l1.90 2.20 0.25 7.05 0.20 7.10 9.60 9.60 c9.55 9.60 11.10 11.65 11.10 14.75 0 1.65 0.30 2.10 1.60 2.10 0.75 0 0.90 -0.40 0.90 -2.20z m300.65 -0.85 c-0.25 -0.25 -0.35 0.35 -0.20 1.45 0.25 1.70 0.30 1.75 0.45 0.40 0.10 -0.80 0 -1.60 -0.25 -1.85z m-193.75 -3.80 c-0.25 -1.25 -1.55 -1.35 -2.30 -0.15 -0.55 0.90 -0.50 1 0.95 1 1.20 0 1.50 -0.20 1.35 -0.85z m111.10 0.10 c0 -1.05 -1.50 -1.55 -2.05 -0.70 -0.70 1.15 -0.55 1.45 0.80 1.45 0.80 0 1.25 -0.30 1.25 -0.75z m49 0.35 c0 -0.50 -1.10 -1.60 -1.60 -1.60 -0.20 0 -0.60 0.45 -0.90 1 -0.50 0.90 -0.40 1 1 1 0.80 0 1.50 -0.20 1.50 -0.40z m-209.40 -9.80 c-0.50 -0.95 -0.55 -0.90 -0.55 0.55 -0.05 0.85 -0.20 2 -0.35 2.50 -0.15 0.50 0.10 0.25 0.55 -0.55 0.65 -1.05 0.70 -1.70 0.35 -2.50z m-56.80 -13.10 c5.10 -2.45 5.55 -7.70 0.90 -10.75 -2.15 -1.40 -4.35 -1.20 -6.40 0.55 -3.40 3 -3.45 6.65 -0.10 9.15 2.65 2.05 3.30 2.15 5.60 1.05z"/>
  <path d="M86.90 99.45 c-1.35 -0.75 -1.30 -6.70 0.05 -7.45 1.65 -0.85 5.30 -0.60 6.20 0.40 1 1.10 1.15 6.10 0.25 7 -0.75 0.75 -5.30 0.75 -6.50 0.05z"/>
  <path d="M79.30 56.90 c-0.90 -1.30 -1 -3.25 -0.30 -5.10 0.45 -1.20 0.70 -1.30 3.40 -1.30 1.60 0 3.15 0.25 3.50 0.60 0.35 0.35 0.60 1.80 0.60 3.25 0 3.05 -0.65 3.65 -4.20 3.65 -1.75 0 -2.40 -0.25 -3 -1.10z"/>
  <path d="M99.80 77.90 c-0.45 -0.60 -0.80 -2.05 -0.80 -3.20 0 -1.70 0.25 -2.35 1.30 -3.15 3.20 -2.50 7.20 -0.50 7.20 3.60 0 2.95 -1.05 3.85 -4.40 3.85 -2.05 0 -2.70 -0.20 -3.30 -1.10z"/>
  <path d="M180.05 78.05 c-1.30 -1.30 -1.45 -5.05 -0.25 -6.25 0.95 -0.95 5.70 -1.10 6.60 -0.20 0.70 0.70 0.80 5.30 0.15 6.35 -0.25 0.35 -1.55 0.80 -2.95 0.95 -2.05 0.20 -2.65 0.05 -3.55 -0.85z"/>
  <path d="M119 25.50 c-0.50 -0.30 -0.75 -1.30 -0.75 -3.25 0 -2.25 0.20 -3 1 -3.60 1.25 -0.90 5.65 -0.65 6.30 0.40 0.75 1.20 0.50 5.30 -0.35 6.15 -0.85 0.90 -4.95 1.10 -6.20 0.30z"/>
  <path d="M159.80 16.90 c-1.15 -1.60 -1 -4.70 0.20 -5.90 1.10 -1.10 3.60 -1.30 5.70 -0.50 1.15 0.40 1.30 0.75 1.30 3 0 3.85 -0.50 4.50 -3.75 4.50 -2.20 0 -2.85 -0.20 -3.45 -1.10z"/>
  <path d="M139 38.50 c-0.75 -0.75 -1 -1.65 -1 -3.75 0 -3.55 1.05 -4.75 4.20 -4.75 3.30 0 4.80 1.40 4.80 4.55 0 3.40 -1.50 4.95 -4.75 4.95 -1.60 0 -2.55 -0.30 -3.25 -1z"/>
 </g>
 <g fill="#00b0dd">
  <path d="M152.70 173.50 c-5.50 -0.80 -12.75 -4.30 -18.75 -9 -1.50 -1.15 -7 -6.30 -12.20 -11.40 -5.25 -5.15 -12.30 -12 -15.65 -15.25 -3.40 -3.25 -6.55 -6.60 -7.10 -7.50 -2.80 -4.55 0.65 -8.85 8 -9.85 3.75 -0.50 7.10 0.40 11.85 3.15 6.85 4.05 10.45 3.50 13.15 -1.90 l1.25 -2.50 0.25 -20.25 c0.25 -20.25 0.25 -20.25 1.40 -21.90 2.80 -3.90 9.20 -4.80 12.90 -1.80 3.50 2.80 3.70 3.65 3.70 15.25 0 11.55 0.10 11.85 3.10 11.15 4.05 -1 8.20 0.45 10.35 3.60 1.30 1.85 1.95 2 5.30 1.15 3.45 -0.85 5.50 -0.25 8.55 2.65 l2.65 2.50 3.30 -0.35 c2.60 -0.25 3.55 -0.15 4.50 0.45 1.30 0.85 2.90 4.75 4.10 10 1 4.50 1.15 15.95 0.20 19.80 -2 8.60 -5.35 15.80 -9.20 19.90 -9.05 9.50 -20.15 13.80 -31.65 12.10z m14.15 -4.70 c4.50 -1.50 6.30 -2.50 9.65 -5.10 4.90 -3.75 7.35 -6.70 9.50 -11.35 3.15 -6.70 4.55 -12.85 4.60 -20.10 0 -7.85 -1.80 -16.20 -3.75 -17.45 -1.25 -0.80 -4.35 1 -4.70 2.75 -0.15 0.75 -0.80 1.90 -1.45 2.50 l-1.15 1.10 -0.50 -1.20 c-0.25 -0.65 -0.65 -2.45 -0.80 -4 -0.35 -3.40 -1.70 -4.90 -4.60 -5.30 -2.90 -0.35 -4.45 0.50 -6.40 3.60 -1 1.50 -2.05 2.75 -2.40 2.75 -1.25 0 -1.85 -1.20 -1.85 -3.65 0 -1.35 -0.35 -3.20 -0.80 -4.10 -0.80 -1.75 -3.25 -3.25 -5.20 -3.25 -1.65 0 -4.30 2.90 -4.70 5.25 -0.45 2.35 -1.55 4.25 -2.50 4.25 -1.90 0 -2.05 -1.15 -2.30 -18.60 l-0.25 -17 -1.20 -0.95 c-1.60 -1.30 -5.50 -1.30 -7.10 0 l-1.20 0.95 -0.35 19.85 c-0.35 20.70 -0.60 22.90 -2.80 26.50 -1.15 1.90 -4.50 4.20 -6.75 4.75 -3.05 0.65 -6.60 -0.25 -10.25 -2.70 -4.35 -2.90 -7.15 -3.60 -10.70 -2.80 -3.25 0.75 -3.95 1.30 -3.50 2.50 0.20 0.55 4.10 4.75 8.65 9.35 7.75 7.90 10.70 11 17.45 18.50 2.75 3.05 10.10 8.65 13.80 10.55 5.35 2.75 12.55 4.25 17.75 3.80 1.30 -0.10 3.90 -0.75 5.80 -1.40z"/>
  <path d="M154 97 c0 -1.10 0.20 -2 0.40 -2 0.20 0 1.30 0.90 2.35 2 l1.95 2 -2.35 0 -2.35 0 0 -2z"/>
  <path d="M219.50 72 l0 -12 2.15 0 2.20 0 -0.20 9.30 c-0.05 5.65 0.05 9.65 0.40 10.25 0.40 0.85 1.10 0.95 5.20 0.95 l4.75 0 0 1.75 0 1.75 -7.25 0 -7.25 0 0 -12z"/>
  <path d="M237.15 82.40 c0.95 -2.25 8.25 -18.75 9.20 -20.80 0.75 -1.55 0.95 -1.65 3 -1.50 l2.20 0.15 2.25 5.25 c1.25 2.90 3.50 8 5 11.40 1.50 3.40 2.70 6.35 2.70 6.65 0 0.25 -0.95 0.45 -2.15 0.45 -2.10 0 -2.15 -0.05 -2.80 -2.25 -0.35 -1.20 -0.95 -2.45 -1.30 -2.75 -0.40 -0.35 -2.80 -0.50 -6.30 -0.40 l-5.70 0.15 -1.20 2.65 c-1.20 2.55 -1.30 2.60 -3.40 2.60 l-2.15 0 0.65 -1.60z m16.35 -7.50 c0 -0.65 -3.90 -9.50 -4.25 -9.55 -0.40 -0.10 -4.15 7.90 -4.20 9.05 -0.05 0.45 1.10 0.60 4.20 0.60 2.35 0 4.25 -0.05 4.25 -0.10z"/>
  <path d="M267 72 l0 -12 2 0 1.95 0 0.15 6.05 0.15 6.10 5.50 -6.10 c5.35 -5.95 5.50 -6.05 7.60 -6.05 1.20 0 2.15 0.15 2.15 0.30 0 0.20 -1.30 1.80 -2.85 3.60 -5 5.60 -5.80 6.70 -5.35 7 0.60 0.40 9.20 12.50 9.20 12.85 0 0.20 -1.05 0.25 -2.35 0.15 -2.40 -0.15 -2.40 -0.20 -6 -4.90 -2 -2.60 -3.80 -4.80 -4.05 -4.90 -0.25 -0.05 -1.25 0.75 -2.30 1.90 -1.65 1.85 -1.80 2.25 -1.80 5 l0 3 -2 0 -2 0 0 -12z"/>
  <path d="M293.50 72 l0 -12 2 0 2 0 0 5.25 0 5.25 6.25 0 6.25 0 0 -5.25 0 -5.25 2.25 0 2.25 0 0 12 0 12 -2.30 0 -2.25 0 0.10 -4.85 0.10 -4.90 -6.35 -0.15 -6.30 -0.15 0 5.05 0 5 -2 0 -2 0 0 -12z"/>
  <path d="M322 72.05 l0 -12.05 5.90 0 c3.20 0 6.70 0.20 7.75 0.45 2.75 0.65 5.70 2.90 7.25 5.50 1.15 1.95 1.35 2.85 1.30 6.05 0 4.05 -0.60 5.65 -3.10 8.30 -2.75 3 -4.15 3.40 -11.95 3.60 l-7.15 0.20 0 -12.05z m12.50 7.95 c2.45 -0.65 4.95 -3.40 5.55 -6 0.70 -3.15 0.10 -5.35 -2.25 -7.75 -1.90 -2 -2.30 -2.20 -5.30 -2.50 -1.80 -0.20 -3.95 -0.25 -4.75 -0.15 l-1.50 0.15 -0.15 7.75 c-0.05 4.25 0 8 0.10 8.35 0.30 0.80 5.70 0.90 8.30 0.15z"/>
  <path d="M347.65 83.40 c0.15 -0.35 2.60 -5.75 5.40 -12 l5.10 -11.40 2.20 0 c1.60 0 2.25 0.20 2.50 0.90 0.20 0.45 2.40 5.65 5 11.50 2.55 5.85 4.65 10.85 4.65 11.10 0 0.30 -0.95 0.50 -2.15 0.50 -2.05 0 -2.15 -0.05 -2.75 -2.10 -1.05 -3.40 -1.10 -3.40 -7.60 -3.40 l-5.90 0 -1.10 2.75 -1.10 2.75 -2.25 0 c-1.60 0 -2.20 -0.20 -2 -0.60z m16.65 -9.25 c-0.80 -2.45 -3.80 -8.90 -4.15 -8.85 -0.45 0.10 -4.05 8.10 -4.10 9.10 -0.05 0.45 1.10 0.60 4.25 0.60 3.85 0 4.25 -0.10 4 -0.85z"/>
  <path d="M382.50 73.75 l0 -10.25 -3.75 0 -3.75 0 0 -1.75 0 -1.75 9.75 0 9.75 0 0 1.75 0 1.75 -3.70 0 c-2.50 0 -3.75 0.20 -3.90 0.60 -0.15 0.35 -0.15 5 -0.05 10.30 l0.15 9.60 -2.25 0 -2.25 0 0 -10.25z"/>
  <path d="M396.50 83.55 c0 -0.40 2.75 -6.60 7.95 -18.05 l2.35 -5.25 2 -0.15 c2.40 -0.20 2.45 -0.10 4.70 5.15 0.90 2.20 3.10 7.25 4.85 11.15 1.75 3.95 3.15 7.30 3.15 7.40 0 0.10 -1 0.20 -2.20 0.20 -2.15 0 -2.20 0 -3.10 -2.60 l-0.95 -2.65 -6.25 0 -6.25 0 -1 2.60 c-1 2.60 -1 2.65 -3.10 2.65 -1.20 0 -2.15 -0.20 -2.15 -0.45z m16.50 -8.90 c0 -0.80 -3.15 -8.40 -3.75 -9.05 -0.60 -0.65 -1.30 0.75 -4.60 8.80 -0.20 0.45 0.80 0.60 4.05 0.60 2.35 0 4.30 -0.15 4.30 -0.35z"/>
  <path d="M426.50 72 l0 -12 6.45 0 c7.40 0 9.15 0.50 11.50 3.35 1.30 1.55 1.55 2.30 1.55 4.50 0 3.35 -0.65 4.95 -2.80 6.90 l-1.80 1.65 2.10 3.05 c1.15 1.65 2.30 3.15 2.55 3.35 0.95 0.55 -0.15 1.20 -2.05 1.20 -1.85 0 -2.10 -0.15 -4 -3.10 -1.10 -1.75 -2.05 -3.35 -2.15 -3.65 -0.25 -0.70 -6.50 -0.30 -7 0.40 -0.20 0.35 -0.30 1.90 -0.15 3.50 l0.30 2.85 -2.25 0 -2.25 0 0 -12z m13.80 0.05 c0.95 -0.55 1.65 -1.50 1.80 -2.30 0.40 -1.95 -0.45 -4.65 -1.70 -5.30 -1.60 -0.85 -8.90 -1.25 -9.40 -0.50 -0.25 0.50 -0.35 8.30 -0.05 8.95 0 0.05 1.80 0.10 3.95 0.10 2.90 0 4.25 -0.25 5.40 -0.95z"/>
  <path d="M132.50 77.25 c0 -0.70 2.10 -3.30 3.15 -3.80 0.80 -0.45 0.70 -0.15 -0.60 1.45 -1.65 2.10 -2.55 2.95 -2.55 2.35z"/>
 </g>
 <g fill="#c96de5">
  <path d="M121.35 122.95 c-1.90 -1.10 -2.35 -3.10 -2.35 -10.50 l0 -7.10 5.60 -5.70 c3.10 -3.10 5.80 -5.65 6 -5.65 0.60 0 0.50 6.25 -0.15 7.60 -0.25 0.65 -1.20 1.65 -2 2.15 -0.85 0.55 -2.10 2 -2.85 3.25 -1.30 2.15 -1.30 2.40 -1.20 9.35 l0.15 7.15 -1.15 0 c-0.65 0 -1.55 -0.25 -2.05 -0.55z"/>
  <path d="M86.20 103 c-2.90 -1.45 -4.25 -3.50 -4.55 -6.95 -0.20 -2.50 -0.10 -3 1.20 -4.65 1.95 -2.50 3.65 -3.40 6.50 -3.40 2.45 0 3.40 0.45 6.95 3.25 1.80 1.45 2.10 1.50 6.65 1.50 5.75 0 8.30 -1 11.60 -4.65 1.20 -1.30 4.50 -4.65 7.40 -7.50 5.10 -5 5.20 -5.15 4.50 -6.40 -0.90 -1.70 -14.80 -15.10 -16.70 -16.10 -1.05 -0.55 -3.35 -0.85 -7.60 -1 -8.90 -0.30 -11.15 0.05 -13.90 2.35 -2.20 1.85 -5.05 3.05 -7.10 3.05 -1.25 0 -4.65 -2.25 -5.90 -3.90 -0.60 -0.80 -1 -2.35 -1.15 -4.10 -0.25 -3.45 1.10 -5.70 4.40 -7.35 3.65 -1.85 6.40 -1.30 9.90 2.05 l1.65 1.55 10.35 0.25 c8.25 0.20 10.65 0.45 11.85 1.10 0.85 0.45 5.80 5.10 11 10.35 8.10 8.15 9.70 9.55 11 9.55 3.45 0.05 3.15 0.50 -8.55 12.70 -6.25 6.50 -12.15 12.30 -13.10 12.90 -1.45 0.90 -2.40 1.05 -6.70 0.95 -6.05 -0.10 -8.40 0.50 -10.85 2.70 -1.10 1 -2.80 1.90 -4.10 2.20 -2.80 0.65 -2.40 0.70 -4.75 -0.45z m5.70 -5.10 c0.35 -0.35 0.60 -1.20 0.60 -1.90 0 -3.50 -4.60 -3.95 -4.90 -0.50 -0.15 1.20 0.10 1.90 0.70 2.35 1.10 0.80 2.80 0.85 3.60 0.05z m-7.85 -41.90 c1.10 -0.65 1.25 -2.60 0.25 -3.45 -2.10 -1.75 -5 0.70 -3.50 2.90 0.85 1.15 1.75 1.30 3.25 0.55z"/>
  <path d="M198.05 100.40 l-3.25 -2.15 -10.75 -0.25 c-8.70 -0.20 -11 -0.40 -11.90 -1.05 -0.60 -0.40 -4.35 -3.85 -8.35 -7.65 -6.70 -6.35 -14.80 -15.50 -14.80 -16.75 0 -0.30 0.70 -0.55 1.60 -0.55 1.35 0 2.80 -1.25 11.60 -9.95 11.25 -11.10 9.85 -10.30 19.05 -10.80 4.30 -0.25 5.80 -0.55 6.90 -1.30 4.45 -3.15 5.05 -3.45 7.20 -3.45 3 0 4.85 1.10 6.40 3.65 2.35 4.10 1.05 8.90 -3 10.85 -3.50 1.70 -5.75 1.20 -10.05 -2.25 -1.75 -1.40 -2.20 -1.50 -6.80 -1.65 -4.55 -0.20 -5.05 -0.10 -7.05 1.10 -1.15 0.70 -5.55 4.65 -9.80 8.75 l-7.75 7.40 1.15 1.45 c2.55 3.35 15.40 15.90 16.80 16.50 0.95 0.40 5.05 0.80 10.30 1 l8.70 0.35 2.90 -2.35 c1.65 -1.40 3.55 -2.50 4.55 -2.65 2.05 -0.30 4.85 0.55 6.05 1.85 3.25 3.60 0.40 11.05 -4.50 11.75 -1.75 0.25 -2.40 0.05 -5.20 -1.85z m7.45 -1.90 c1.10 -1.10 1.30 -3 0.50 -4.50 -0.95 -1.80 -4.85 -1.70 -6.10 0.20 -0.70 1.05 -0.40 3.30 0.60 4.30 0.55 0.55 1.65 1 2.50 1 0.85 0 1.95 -0.45 2.50 -1z m-7.10 -43.15 c0.95 -1.95 -0.25 -3.85 -2.40 -3.85 -2.55 0 -3.75 2.20 -2.45 4.55 0.85 1.60 4 1.15 4.85 -0.70z"/>
  <path d="M99 82.10 c-1.80 -0.90 -3.80 -3.45 -4.30 -5.45 -0.75 -3 1.35 -7.30 4.30 -8.75 5.25 -2.65 11.50 1.25 11.50 7.10 0 5.85 -6.25 9.75 -11.50 7.10z m6.25 -5.60 c0.75 -0.80 0.80 -1.25 0.35 -2.20 -0.90 -2 -2.25 -2.45 -3.80 -1.25 -1.50 1.20 -1.60 1.80 -0.50 3.35 0.95 1.35 2.75 1.40 3.95 0.10z"/>
  <path d="M178.95 81.45 c-5 -2.95 -5.20 -9.55 -0.40 -13.05 4.50 -3.35 11.30 0.15 11.80 6.05 0.40 3.95 -2.85 7.55 -7.20 7.90 -1.80 0.15 -2.85 -0.05 -4.20 -0.90z m6.15 -5.15 c0.60 -0.85 0.45 -2.55 -0.20 -3.20 -1.35 -1.35 -4.40 -0.15 -4.40 1.70 0 1.30 1.95 2.80 3.15 2.40 0.60 -0.20 1.25 -0.60 1.45 -0.90z"/>
  <path d="M139.85 70.65 c-0.20 -0.15 -0.35 -0.95 -0.35 -1.75 0 -3.10 -1.55 -5.15 -11.10 -14.75 l-9.60 -9.60 -0.20 -7.05 -0.25 -7.05 -2.20 -2.60 c-2.50 -2.95 -2.90 -4.05 -2.50 -6.95 0.55 -4 3.90 -6.90 8.05 -6.90 4.80 0 7.80 3.05 7.80 8 0 2.95 -0.50 4 -3.20 6.90 -1.50 1.60 -1.55 1.80 -1.55 6.25 0 6.75 0.65 7.85 9.60 16.60 4.05 4 7.75 7.25 8.20 7.25 0.75 0 16.10 -15.05 17.15 -16.80 0.35 -0.60 0.55 -4.30 0.55 -10 l0 -9 -2.10 -2.55 c-3.40 -4 -4 -6.90 -2.15 -9.95 2.25 -3.60 8.10 -4.95 11.80 -2.65 4.15 2.55 4.60 8.80 0.95 12.20 -2.65 2.55 -2.75 2.95 -2.75 13.25 0 8.40 -0.10 9.75 -0.95 11.40 -0.50 1 -4.75 5.55 -9.35 10.10 -9.75 9.60 -10.70 10.80 -10.70 13.80 l0 2.20 -2.40 0 c-1.35 0 -2.60 -0.15 -2.75 -0.35z m-16.15 -46.95 c1.40 -1.35 0.90 -3.30 -1 -3.90 -1.40 -0.45 -2.80 0.75 -2.80 2.40 0 2.20 2.25 3.10 3.80 1.50z m41.30 -8.15 c0.90 -1.70 0.60 -3.05 -0.80 -3.55 -2.45 -0.95 -4.35 1.20 -2.95 3.30 0.95 1.45 3 1.60 3.75 0.25z"/>
  <path d="M139.50 42.15 c-1.60 -0.65 -3.95 -2.75 -4.50 -4.15 -0.85 -2 -0.40 -6.25 0.85 -7.90 1.85 -2.45 3.55 -3.35 6.35 -3.35 8.65 0.10 11.35 11.25 3.60 14.95 -1.65 0.80 -4.80 1 -6.30 0.45z m4.75 -5.40 c0.70 -0.65 1.25 -1.65 1.25 -2.20 0 -1.05 -2.20 -3.05 -3.30 -3.05 -1.15 0 -2.70 1.90 -2.70 3.25 0 1.40 1.60 3.25 2.75 3.25 0.45 0 1.35 -0.55 2 -1.25z"/>
 </g>
 <g fill="#000000">
  <path d="M219.10 140.20 c-0.60 -0.40 -1.10 -1.20 -1.10 -1.75 0 -1.25 0.80 -1.25 1.50 0.05 1.15 2.15 5.25 1.60 4.90 -0.65 -0.10 -0.75 -0.80 -1.30 -2.25 -1.85 -3.90 -1.45 -5 -3.30 -3.25 -5.45 1.40 -1.80 5.60 -1.45 6.65 0.55 0.85 1.60 -0.25 2.20 -1.25 0.70 -0.95 -1.50 -3.30 -1.75 -4.30 -0.55 -0.95 1.15 -0.40 1.90 2.80 3.50 2.55 1.30 2.95 1.70 3.10 3.10 0.10 1.15 -0.15 1.75 -1 2.35 -1.45 1 -4.35 1.05 -5.80 0z"/>
  <path d="M232.50 135.25 l0 -5.75 3.75 0 c2.15 0 3.75 0.20 3.75 0.50 0 0.30 -1.35 0.50 -3 0.50 l-3 0 0 2 0 2 2.50 0 c1.40 0 2.50 0.25 2.50 0.50 0 0.30 -1.10 0.50 -2.50 0.50 l-2.50 0 0 2 0 1.95 2.75 0.15 c4.05 0.20 3.65 1.10 -0.60 1.30 l-3.65 0.15 0 -5.80z"/>
  <path d="M246 135.25 l0 -5.75 3 0 c2.35 0 3.20 0.20 4 1 1.30 1.30 1.25 3 0 4.65 l-1.05 1.30 1.30 2.10 c0.75 1.10 1.20 2.15 1.05 2.30 -0.60 0.60 -1.80 -0.40 -2.80 -2.35 -0.85 -1.65 -1.25 -2 -2.50 -2 -1.45 0 -1.50 0.10 -1.50 2.25 0 1.65 -0.20 2.25 -0.75 2.25 -0.60 0 -0.75 -0.95 -0.75 -5.75z m6 -1 c1.10 -1.30 0.20 -3.15 -1.70 -3.55 -2.30 -0.40 -2.80 0 -2.80 2.35 0 1.95 0 1.95 1.95 1.95 1.10 0 2.20 -0.30 2.55 -0.75z"/>
  <path d="M261.70 135.40 c-1.15 -3.10 -1.95 -5.80 -1.85 -6 0.55 -1.05 1.60 0.60 2.85 4.35 0.75 2.35 1.55 4.25 1.75 4.25 0.25 0 1.05 -1.90 1.85 -4.25 1.25 -3.80 2.30 -5.35 2.85 -4.35 0.40 0.70 -3.95 11.35 -4.65 11.50 -0.55 0.10 -1.35 -1.55 -2.80 -5.50z"/>
  <path d="M275.50 135.25 c0 -4.80 0.15 -5.75 0.75 -5.75 0.60 0 0.75 0.95 0.75 5.75 0 4.80 -0.15 5.75 -0.75 5.75 -0.60 0 -0.75 -0.95 -0.75 -5.75z"/>
  <path d="M285.65 140.25 c-2.30 -1.60 -2.60 -6.90 -0.55 -9.50 1.30 -1.70 4.85 -1.80 6.40 -0.15 1.20 1.30 1.30 2.40 0.25 2.40 -0.40 0 -0.75 -0.20 -0.75 -0.45 0 -0.90 -1.55 -2.05 -2.70 -2.05 -1.90 0 -2.80 1.50 -2.80 4.65 0 2.20 0.25 3.10 1 3.85 1.40 1.40 2.35 1.25 4 -0.50 0.75 -0.80 1.55 -1.50 1.70 -1.50 0.65 0 0.25 1.45 -0.75 2.70 -1.20 1.50 -4.05 1.80 -5.80 0.55z"/>
  <path d="M299.50 135.25 l0 -5.75 3.75 0 c2.15 0 3.75 0.20 3.75 0.50 0 0.30 -1.35 0.50 -3 0.50 l-3 0 0 2 0 2 2.50 0 c1.40 0 2.50 0.25 2.50 0.50 0 0.30 -1.10 0.50 -2.50 0.50 l-2.50 0 0 2 0 2 2.20 0 c1.20 0 2.55 0.15 3 0.30 1.65 0.65 0.10 1.20 -3.25 1.20 l-3.45 0 0 -5.75z"/>
  <path d="M313.60 140.20 c-0.60 -0.40 -1.10 -1.20 -1.10 -1.75 0 -1.25 0.80 -1.25 1.50 0.05 1.10 2.05 5 1.65 5 -0.55 0 -0.70 -0.65 -1.25 -2.35 -2 -3 -1.30 -4.15 -2.30 -4.15 -3.70 0 -3.05 6 -4 7.50 -1.20 0.90 1.60 0 2.10 -1.25 0.70 -1.35 -1.40 -3.30 -1.65 -4.25 -0.50 -0.95 1.15 -0.40 1.90 2.80 3.50 2.55 1.30 2.95 1.70 3.10 3.10 0.10 1.15 -0.15 1.75 -1 2.35 -1.45 1 -4.35 1.05 -5.80 0z"/>
  <path d="M335.50 135.25 l0 -5.75 2.80 0 c3.95 0 5.70 1.05 5.70 3.40 0 1.95 -2.15 3.60 -4.75 3.60 l-2.25 0 0 2.25 c0 1.65 -0.20 2.25 -0.75 2.25 -0.60 0 -0.75 -0.95 -0.75 -5.75z m6.40 -0.85 c1.60 -1.60 -0.55 -4.10 -3.25 -3.80 -1.25 0.15 -1.40 0.35 -1.55 2.30 l-0.15 2.10 2.15 0 c1.20 0 2.45 -0.25 2.80 -0.60z"/>
  <path d="M353.05 139.90 c-2.85 -8.05 -3.65 -10.50 -3.40 -10.70 0.65 -0.65 1.30 0.50 2.85 4.80 0.90 2.45 1.70 4.50 1.75 4.50 0.10 0 0.65 -1.50 1.30 -3.35 1.45 -4.55 2.40 -6.40 3 -5.80 0.30 0.30 -0.35 2.65 -1.60 6.05 -2.10 5.65 -3.05 6.75 -3.90 4.50z"/>
  <path d="M367.90 135.90 l-0.15 -5.15 -1.85 -0.15 c-3.70 -0.30 -1.80 -1.10 2.60 -1.10 2.65 0 4.50 0.20 4.50 0.50 0 0.30 -0.80 0.50 -1.75 0.50 l-1.75 0 0 5.25 c0 4.30 -0.15 5.25 -0.75 5.25 -0.55 0 -0.75 -1 -0.85 -5.10z"/>
  <path d="M387.50 135.25 c0 -4.80 0.15 -5.75 0.75 -5.75 0.60 0 0.75 0.90 0.75 5 0 5.30 -0.05 5.20 2.60 5 0.75 -0.05 1.85 0.05 2.40 0.25 1.95 0.60 0.40 1.25 -3.05 1.25 l-3.45 0 0 -5.75z"/>
  <path d="M403.50 135.75 l0 -5.25 -1.75 0 c-0.95 0 -1.75 -0.20 -1.75 -0.50 0 -0.30 1.85 -0.50 4.50 -0.50 4.40 0 6.30 0.80 2.65 1.10 l-1.90 0.15 -0.15 5.15 c-0.10 4.10 -0.30 5.10 -0.85 5.10 -0.60 0 -0.75 -0.95 -0.75 -5.25z"/>
  <path d="M415 135.25 l0 -5.75 2.55 0 c1.40 0 2.95 0.25 3.50 0.50 1.30 0.75 2.45 3.10 2.45 5.20 0 3.85 -2.10 5.80 -6.25 5.80 l-2.25 0 0 -5.75z m6 3.50 c0.35 -0.45 0.75 -1.90 0.90 -3.25 0.20 -2.10 0.05 -2.60 -1.05 -3.70 -0.85 -0.85 -1.85 -1.30 -2.85 -1.30 l-1.50 0 0 4.50 0 4.50 1.95 0 c1.10 0 2.20 -0.30 2.55 -0.75z"/>
  <path d="M255.70 113.40 c-1.15 -3.10 -1.95 -5.85 -1.85 -6.05 0.55 -0.95 1.70 1 3 4.90 0.75 2.30 1.50 4.10 1.65 4 0.20 -0.10 1 -2.15 1.75 -4.50 0.85 -2.45 1.70 -4.25 2.10 -4.25 0.95 0 0.80 0.70 -1.25 6.25 -1.10 2.95 -2.15 5.05 -2.60 5.15 -0.55 0.10 -1.30 -1.45 -2.80 -5.50z"/>
  <path d="M269.50 113.25 l0 -5.75 3.75 0 c2.15 0 3.75 0.20 3.75 0.50 0 0.30 -1.35 0.50 -3 0.50 l-3 0 0 2 0 2 2.50 0 c1.40 0 2.50 0.25 2.50 0.50 0 0.30 -1.15 0.50 -2.55 0.50 l-2.50 0 0.15 2.10 0.15 2.15 2.70 0 c1.70 0 2.80 0.25 2.90 0.65 0.20 0.45 -0.75 0.60 -3.55 0.60 l-3.80 0 0 -5.75z"/>
  <path d="M283 113.65 c0 -5.45 0.30 -6.90 1.30 -6.25 0.30 0.20 1.80 2.25 3.35 4.55 l2.80 4.25 0.15 -4.35 c0.20 -6.55 1.15 -5.65 1.30 1.30 0.15 7.35 -0.30 7.50 -4.25 1.50 l-2.90 -4.30 -0.15 4.30 c-0.10 3.40 -0.30 4.35 -0.85 4.35 -0.60 0 -0.75 -1 -0.75 -5.35z"/>
  <path d="M302.35 118.65 c-0.20 -0.15 -0.35 -2.55 -0.35 -5.25 l0 -4.90 -2.05 0 c-1.20 0 -1.90 -0.20 -1.70 -0.50 0.40 -0.65 9.25 -0.65 9.25 -0.05 0 0.30 -0.85 0.55 -1.85 0.65 l-1.90 0.15 -0.15 5.15 c-0.10 4.70 -0.40 5.65 -1.25 4.75z"/>
  <path d="M314.05 117.70 c-0.85 -1.10 -1.05 -2.05 -1.05 -5.25 0 -4.10 0.30 -5.60 1.05 -5.15 0.25 0.15 0.45 2.15 0.45 4.50 0 3.60 0.15 4.35 1.05 5.25 0.75 0.75 1.40 0.95 2.35 0.70 0.75 -0.20 1.45 -0.45 1.60 -0.60 0.15 -0.10 0.35 -2.35 0.50 -4.95 0.15 -2.65 0.45 -4.70 0.75 -4.70 0.30 0 0.55 1.90 0.65 4.40 0.10 3.85 0 4.60 -0.90 5.75 -0.85 1.10 -1.50 1.35 -3.25 1.35 -1.75 0 -2.40 -0.25 -3.20 -1.30z"/>
  <path d="M328.45 118.80 c-0.10 -0.10 -0.15 -2.70 -0.05 -5.75 l0.15 -5.55 2.70 0 c1.80 0 3 0.30 3.75 0.90 1.35 1.10 1.45 3.25 0.20 4.65 -0.85 0.95 -0.85 1.05 0.20 3.25 1.30 2.65 1.30 2.70 0.35 2.70 -0.40 0 -1.25 -1 -1.85 -2.25 -0.90 -1.85 -1.35 -2.25 -2.50 -2.25 -1.35 0 -1.40 0.10 -1.40 2.25 0 1.55 -0.20 2.25 -0.65 2.25 -0.40 0 -0.80 -0.10 -0.90 -0.20z m5.25 -6.10 c0.50 -0.20 0.80 -0.90 0.80 -1.75 0 -1.55 -1.15 -2.45 -3.20 -2.45 -1.20 0 -1.30 0.15 -1.30 2.25 0 2.15 0.05 2.25 1.45 2.25 0.80 0 1.80 -0.15 2.25 -0.30z"/>
  <path d="M343 113.25 l0 -5.75 3.50 0 c2 0 3.50 0.20 3.50 0.50 0 0.30 -1.25 0.50 -2.75 0.50 l-2.75 0 0 2 0 2 2.50 0 c1.40 0 2.50 0.25 2.50 0.50 0 0.30 -1.10 0.50 -2.50 0.50 l-2.50 0 0 2 0 2 2.20 0 c1.20 0 2.55 0.15 3 0.30 1.65 0.65 0.10 1.20 -3.25 1.20 l-3.45 0 0 -5.75z"/>
  <path d="M357.05 117.95 c-1.10 -1.05 -1.20 -2 -0.20 -2.30 0.30 -0.10 0.70 0.25 0.85 0.75 0.30 0.90 1.65 1.60 3.15 1.60 0.30 0 0.95 -0.35 1.35 -0.80 1.15 -1.15 0.35 -2.20 -2.80 -3.65 -2.70 -1.35 -3.25 -2.15 -2.70 -4.30 0.80 -3.05 7.80 -2.05 7.20 1.05 -0.15 0.85 -0.30 0.80 -1.40 -0.45 -1.80 -2.05 -4.75 -1.65 -4.40 0.65 0.10 0.85 0.80 1.35 2.80 2.10 2.95 1.10 3.90 2.50 3.15 4.60 -0.55 1.40 -1.45 1.80 -4 1.80 -1.20 0 -2.25 -0.35 -3 -1.05z"/>
  <path d="M379.50 118 c-1.25 -1.25 -1.25 -2.55 0 -4.15 0.85 -1.10 0.90 -1.45 0.45 -2.55 -0.95 -2.05 0.10 -3.80 2.20 -3.80 2.90 0 3.80 2.20 1.75 4.35 l-1.10 1.20 1.30 1.25 c1.30 1.30 1.30 1.30 1.65 0.25 0.60 -1.90 1.40 -1.20 1.05 0.90 -0.15 1.15 -0.10 2.10 0.20 2.30 1.15 0.70 0.30 1 -3 1.10 -2.95 0.10 -3.70 -0.05 -4.50 -0.85z m4.35 -0.80 c0.15 -0.50 -0.20 -1.30 -1 -2.10 -1.10 -1.05 -1.40 -1.15 -2.05 -0.60 -1 0.80 -1 1.70 0 2.70 1 1.05 2.65 1 3.05 0z m-0.45 -6.55 c0.25 -0.50 0.35 -1.20 0.25 -1.50 -0.30 -0.90 -2.10 -0.80 -2.45 0.10 -0.75 1.90 1.30 3.15 2.20 1.40z"/>
 </g>
</svg>